#N canvas 464 245 999 489 10;
#N canvas 552 595 1434 499 churchshape 0;
#X obj 285 68 gemhead;
#X obj 278 194 rotate;
#X msg 381 48 1 1 1;
#X msg 284 324 draw line;
#X msg 213 361 draw fill;
#X msg 381 73 0 0 1;
#X floatatom 356 240 0 0 0 0 - - -;
#X floatatom 411 241 0 0 0 0 - - -;
#X text 348 218 width;
#X text 406 217 height;
#X text 433 74 blue;
#X text 424 50 white;
#X text 313 103 (blue);
#X msg -29 198 draw line;
#X msg -29 231 draw fill;
#X floatatom 161 221 0 0 0 0 - - -;
#X floatatom 216 222 0 0 0 0 - - -;
#X text 153 199 width;
#X text 211 198 height;
#X text 161 64 (blue);
#X obj 83 71 gemhead;
#X obj 80 40 tgl 15 0 empty empty empty 17 7 0 10 -262144 -1 -1 0 1
;
#X obj 485 60 gemhead;
#X msg 581 40 1 1 1;
#X msg 484 316 draw line;
#X msg 584 323 draw fill;
#X msg 581 65 0 0 1;
#X floatatom 556 232 0 0 0 0 - - -;
#X floatatom 611 233 0 0 0 0 - - -;
#X text 548 210 width;
#X text 606 209 height;
#X text 633 66 blue;
#X text 624 42 white;
#X text 557 91 (blue);
#X obj 696 66 gemhead;
#X msg 792 46 1 1 1;
#X msg 695 322 draw line;
#X msg 795 329 draw fill;
#X msg 792 71 0 0 1;
#X floatatom 767 238 0 0 0 0 - - -;
#X floatatom 822 239 0 0 0 0 - - -;
#X text 759 216 width;
#X text 817 215 height;
#X text 844 72 blue;
#X text 835 48 white;
#X text 794 101 (blue);
#X obj 474 30 tgl 15 0 empty empty empty 17 7 0 10 -262144 -1 -1 0
1;
#X obj 280 37 tgl 15 0 empty empty empty 17 7 0 10 -262144 -1 -1 0
1;
#X obj 683 22 tgl 15 0 empty empty empty 17 7 0 10 -262144 -1 -1 0
1;
#X obj 479 275 rectangle 1.4 0.8;
#X obj 279 283 rectangle 1.4 1.4;
#X obj 84 264 rectangle 1.4 1.4;
#X obj 690 281 rectangle 1.4 0.7;
#X obj 690 179 translateXYZ 0 2.1 0;
#X obj 479 185 translateXYZ -2.8 0 0;
#X obj 84 177 translateXYZ 2.8 0 0;
#X obj 907 74 gemhead;
#X msg 1003 54 1 1 1;
#X msg 906 330 draw line;
#X msg 1006 337 draw fill;
#X msg 1003 79 0 0 1;
#X floatatom 978 246 0 0 0 0 - - -;
#X floatatom 1033 247 0 0 0 0 - - -;
#X text 970 224 width;
#X text 1028 223 height;
#X text 1055 80 blue;
#X text 1046 56 white;
#X text 996 105 (blue);
#X obj 894 30 tgl 15 0 empty empty empty 17 7 0 10 -262144 -1 -1 0
1;
#X obj 1127 87 gemhead;
#X msg 1126 343 draw line;
#X msg 1226 350 draw fill;
#X msg 1223 92 0 0 1;
#X floatatom 1198 259 0 0 0 0 - - -;
#X floatatom 1253 260 0 0 0 0 - - -;
#X text 1190 237 width;
#X text 1248 236 height;
#X text 1193 144 (blue);
#X obj 1114 43 tgl 15 0 empty empty empty 17 7 0 10 -262144 -1 -1 0
1;
#X obj 1121 302 rectangle 1.4 0.7;
#X obj 1121 200 translateXYZ 0 -2.1 0;
#X obj 901 187 translateXYZ 0 0 -0.1;
#X obj 901 289 rectangle 7 5;
#X obj 85 106 color 0.8 0.8 0.8;
#X obj 279 123 color 0.8 0.8 0.8;
#X obj 479 115 color 0.8 0.8 0.8;
#X obj 690 121 color 0.8 0.8 0.8;
#X obj 901 129 color 1 1 1;
#X obj 1121 142 color 0.8 0.8 0.8;
#X connect 0 0 84 0;
#X connect 1 0 50 0;
#X connect 2 0 84 1;
#X connect 3 0 50 0;
#X connect 4 0 50 0;
#X connect 5 0 84 1;
#X connect 6 0 50 1;
#X connect 7 0 50 2;
#X connect 13 0 51 0;
#X connect 14 0 51 0;
#X connect 15 0 51 1;
#X connect 16 0 51 2;
#X connect 20 0 83 0;
#X connect 21 0 20 0;
#X connect 22 0 85 0;
#X connect 23 0 85 1;
#X connect 24 0 49 0;
#X connect 25 0 49 0;
#X connect 26 0 85 1;
#X connect 27 0 49 1;
#X connect 28 0 49 2;
#X connect 34 0 86 0;
#X connect 35 0 86 1;
#X connect 36 0 52 0;
#X connect 37 0 52 0;
#X connect 38 0 86 1;
#X connect 39 0 52 1;
#X connect 40 0 52 2;
#X connect 46 0 22 0;
#X connect 47 0 0 0;
#X connect 48 0 34 0;
#X connect 53 0 52 0;
#X connect 54 0 49 0;
#X connect 55 0 51 0;
#X connect 56 0 87 0;
#X connect 57 0 87 1;
#X connect 58 0 82 0;
#X connect 59 0 82 0;
#X connect 60 0 87 1;
#X connect 61 0 82 1;
#X connect 62 0 82 2;
#X connect 68 0 56 0;
#X connect 69 0 88 0;
#X connect 70 0 79 0;
#X connect 71 0 79 0;
#X connect 72 0 88 1;
#X connect 73 0 79 1;
#X connect 74 0 79 2;
#X connect 78 0 69 0;
#X connect 80 0 79 0;
#X connect 81 0 82 0;
#X connect 83 0 55 0;
#X connect 84 0 1 0;
#X connect 85 0 54 0;
#X connect 86 0 53 0;
#X connect 87 0 81 0;
#X connect 88 0 80 0;
#X restore 63 314 pd churchshape;
#N canvas 67 259 247 160 Gem.init 0;
#X obj 118 46 loadbang;
#X msg 118 81 reset;
#X obj 118 113 outlet;
#X connect 0 0 1 0;
#X connect 1 0 2 0;
#X restore 32 35 pd Gem.init;
#N canvas 534 180 682 322 gemwin 0;
#X obj 102 122 tgl 15 0 \$0-gemstart \$0-gemstart empty 17 7 0 10 -262144
-1 -1 0 1;
#X obj 102 161 r \$0-gemstart;
#X obj 102 182 select 1 0;
#X msg 102 248 create \, 1;
#X msg 177 249 destroy;
#X obj 102 273 t a;
#X obj 318 54 inlet;
#X obj 318 287 outlet;
#X obj 350 128 route create destroy;
#X obj 350 150 t b;
#X msg 350 172 1;
#X obj 390 150 t b;
#X msg 390 172 0;
#X obj 350 195 t f;
#X msg 350 219 set \$1;
#X text 118 122 rendering;
#X obj 318 255 gemwin;
#X obj 318 100 t a a;
#X obj 51 205 t b b;
#X obj 124 45 ambient;
#X msg 183 280 dimen 600 450;
#X connect 1 0 2 0;
#X connect 2 0 18 0;
#X connect 2 1 4 0;
#X connect 3 0 5 0;
#X connect 4 0 5 0;
#X connect 5 0 17 0;
#X connect 6 0 17 0;
#X connect 8 0 9 0;
#X connect 8 1 11 0;
#X connect 9 0 10 0;
#X connect 10 0 13 0;
#X connect 11 0 12 0;
#X connect 12 0 13 0;
#X connect 13 0 14 0;
#X connect 14 0 0 0;
#X connect 16 0 7 0;
#X connect 17 0 16 0;
#X connect 17 1 8 0;
#X connect 18 0 3 0;
#X connect 18 1 20 0;
#X connect 20 0 16 0;
#X coords 0 -1 1 1 85 40 1 100 100;
#X restore 32 60 pd gemwin;
#N canvas 755 781 746 612 mousecontrol 0;
#X obj 193 74 spigot;
#X floatatom 282 205 0 0 0 0 - - -;
#X floatatom 193 203 0 0 0 0 - - -;
#X obj 282 70 spigot;
#X obj 282 148 - 1;
#X obj 229 24 gemmouse 2 2;
#X obj 232 419 spigot 0;
#X floatatom 167 474 5 0 0 0 - - -, f 5;
#X obj 296 365 != 1;
#X obj 583 416 spigot 0;
#X obj 630 381 != 1;
#X floatatom 374 475 5 0 0 0 - - -, f 5;
#X obj 446 348 &&;
#X obj 353 521 s xpos;
#X obj 180 514 s ypos;
#X obj 150 424 spigot 1;
#X obj 517 416 spigot 1;
#X obj 193 143 - 1;
#X obj 193 175 * 5.33333;
#X obj 620 331 max -1.4;
#X obj 413 314 >= -1.4;
#X obj 481 311 <= 1.4;
#X obj 33 290 >= -1.4;
#X obj 95 287 <= 1.4;
#X obj 18 427 tgl 15 0 empty empty empty 17 7 0 10 -262144 -1 -1 0
1;
#X obj 299 476 tgl 15 0 empty empty empty 17 7 0 10 -262144 -1 -1 0
1;
#X obj 464 416 tgl 15 0 empty empty empty 17 7 0 10 -262144 -1 -1 0
1;
#X obj 668 430 tgl 15 0 empty empty empty 17 7 0 10 -262144 -1 -1 0
1;
#X obj 234 266 min 0.7;
#X obj 234 307 max -0.7;
#X obj 548 291 min 4.2;
#X obj 548 332 max -4.2;
#X obj 282 177 * -4;
#X obj 162 267 min 2.8;
#X obj 162 308 max -2.8;
#X obj 620 290 min 1.4;
#X obj 67 336 &&;
#X obj 70 441 tgl 15 0 empty empty empty 17 7 0 10 -262144 -1 -1 0
1;
#X obj 92 369 != 1;
#X obj 105 401 &&;
#X obj 338 421 spigot 0;
#X obj 109 445 tgl 15 0 empty empty empty 17 7 0 10 -262144 -1 -1 0
1;
#X obj 306 264 min 1.4;
#X obj 306 305 max -1.4;
#X connect 0 0 17 0;
#X connect 1 0 28 0;
#X connect 1 0 33 0;
#X connect 1 0 42 0;
#X connect 2 0 30 0;
#X connect 2 0 35 0;
#X connect 3 0 4 0;
#X connect 4 0 32 0;
#X connect 5 0 0 0;
#X connect 5 1 3 0;
#X connect 5 2 3 1;
#X connect 5 2 0 1;
#X connect 6 0 7 0;
#X connect 7 0 14 0;
#X connect 7 0 20 0;
#X connect 7 0 21 0;
#X connect 8 0 6 1;
#X connect 8 0 25 0;
#X connect 9 0 11 0;
#X connect 10 0 9 1;
#X connect 10 0 27 0;
#X connect 11 0 13 0;
#X connect 11 0 22 0;
#X connect 11 0 23 0;
#X connect 12 0 10 0;
#X connect 12 0 16 1;
#X connect 12 0 26 0;
#X connect 15 0 7 0;
#X connect 16 0 11 0;
#X connect 17 0 18 0;
#X connect 18 0 2 0;
#X connect 19 0 9 0;
#X connect 20 0 12 0;
#X connect 21 0 12 1;
#X connect 22 0 36 0;
#X connect 22 0 24 0;
#X connect 22 0 8 0;
#X connect 22 0 39 1;
#X connect 23 0 36 1;
#X connect 28 0 29 0;
#X connect 29 0 6 0;
#X connect 30 0 31 0;
#X connect 31 0 16 0;
#X connect 32 0 1 0;
#X connect 33 0 34 0;
#X connect 34 0 15 0;
#X connect 35 0 19 0;
#X connect 36 0 15 1;
#X connect 36 0 37 0;
#X connect 36 0 38 0;
#X connect 38 0 39 0;
#X connect 39 0 40 1;
#X connect 39 0 41 0;
#X connect 40 0 7 0;
#X connect 42 0 43 0;
#X connect 43 0 40 0;
#X restore 61 365 pd mousecontrol;
#N canvas 483 291 787 346 ir_triggers 0;
#X obj 181 31 r xpos;
#X obj 390 23 r ypos;
#X obj 36 147 tgl 15 0 empty empty empty 17 7 0 10 -262144 -1 -1 0
1;
#X obj 36 177 change;
#X obj 99 146 tgl 15 0 empty empty empty 17 7 0 10 -262144 -1 -1 0
1;
#X obj 99 176 change;
#X obj 177 146 &&;
#X obj 177 176 change;
#X obj 277 145 &&;
#X obj 277 175 change;
#X obj 384 142 tgl 15 0 empty empty empty 17 7 0 10 -262144 -1 -1 0
1;
#X obj 384 172 change;
#X obj 444 141 tgl 15 0 empty empty empty 17 7 0 10 -262144 -1 -1 0
1;
#X obj 444 171 change;
#X obj 548 154 &&;
#X obj 648 153 &&;
#X obj 601 190 &&;
#X obj 604 224 change;
#X obj 607 287 bng 15 250 50 0 empty empty empty 17 7 0 10 -262144
-1 -1;
#X obj 607 255 sel 1;
#X obj 446 256 bng 15 250 50 0 empty empty empty 17 7 0 10 -262144
-1 -1;
#X obj 446 221 sel 1;
#X obj 382 261 bng 15 250 50 0 empty empty empty 17 7 0 10 -262144
-1 -1;
#X obj 382 221 sel 1;
#X obj 274 256 bng 15 250 50 0 empty empty empty 17 7 0 10 -262144
-1 -1;
#X obj 275 225 sel 1;
#X obj 174 257 bng 15 250 50 0 empty empty empty 17 7 0 10 -262144
-1 -1;
#X obj 174 222 sel 1;
#X obj 94 250 bng 15 250 50 0 empty empty empty 17 7 0 10 -262144 -1
-1;
#X obj 94 215 sel 1;
#X obj 37 248 bng 15 250 50 0 empty empty empty 17 7 0 10 -262144 -1
-1;
#X obj 37 213 sel 1;
#X obj 30 278 s E;
#X obj 443 286 s G;
#X obj 277 110 < -1.4;
#X obj 177 111 > 1.4;
#X obj 529 118 > -1.4;
#X obj 588 117 < 1.4;
#X obj 99 111 < -2.8;
#X obj 324 111 >= -2.8;
#X obj 36 114 > 2.8;
#X obj 224 112 <= 2.8;
#X obj 639 117 > -1.4;
#X obj 698 116 < 1.4;
#X obj 441 112 < -1.4;
#X obj 383 111 > 1.4;
#X obj 94 281 s A;
#X obj 271 289 s B;
#X obj 608 318 s C;
#X obj 177 292 s D;
#X obj 383 295 s F;
#X connect 0 0 34 0;
#X connect 0 0 35 0;
#X connect 0 0 36 0;
#X connect 0 0 37 0;
#X connect 0 0 38 0;
#X connect 0 0 39 0;
#X connect 0 0 40 0;
#X connect 0 0 41 0;
#X connect 1 0 42 0;
#X connect 1 0 43 0;
#X connect 1 0 44 0;
#X connect 1 0 45 0;
#X connect 2 0 3 0;
#X connect 3 0 31 0;
#X connect 4 0 5 0;
#X connect 5 0 29 0;
#X connect 6 0 7 0;
#X connect 7 0 27 0;
#X connect 8 0 9 0;
#X connect 9 0 25 0;
#X connect 10 0 11 0;
#X connect 11 0 23 0;
#X connect 12 0 13 0;
#X connect 13 0 21 0;
#X connect 14 0 16 0;
#X connect 15 0 16 1;
#X connect 16 0 17 0;
#X connect 17 0 19 0;
#X connect 18 0 48 0;
#X connect 19 0 18 0;
#X connect 20 0 33 0;
#X connect 21 0 20 0;
#X connect 22 0 50 0;
#X connect 23 0 22 0;
#X connect 24 0 47 0;
#X connect 25 0 24 0;
#X connect 26 0 49 0;
#X connect 27 0 26 0;
#X connect 28 0 46 0;
#X connect 29 0 28 0;
#X connect 30 0 32 0;
#X connect 31 0 30 0;
#X connect 34 0 8 0;
#X connect 35 0 6 0;
#X connect 36 0 14 0;
#X connect 37 0 14 1;
#X connect 38 0 4 0;
#X connect 39 0 8 1;
#X connect 40 0 2 0;
#X connect 41 0 6 1;
#X connect 42 0 15 0;
#X connect 43 0 15 1;
#X connect 44 0 12 0;
#X connect 45 0 10 0;
#X restore 59 402 pd ir_triggers;
#N canvas 1234 523 971 721 sound 0;
#X obj 60 590 dac~;
#X obj 688 554 table dry;
#X obj 61 70 bng 50 250 50 0 empty empty empty 17 7 0 10 -262144 -1
-1;
#X obj 130 224 bng 15 250 50 0 empty empty empty 17 7 0 10 -262144
-1 -1;
#X obj 61 181 tabplay~ dry;
#X obj 241 40 spigot;
#X obj 352 -38 tgl 50 0 empty empty empty 17 7 0 10 -262144 -1 -1 0
1;
#X obj 61 142 t b 1;
#X obj 351 57 sel 1;
#X obj 352 -66 inlet;
#X msg 159 325 switch A;
#N canvas 0 0 833 528 loadtables 0;
#X obj 439 503 soundfiler;
#X obj 184 55 loadbang;
#X msg 292 308 read -resize Anechoic.wav dry;
#X msg 185 217 read -resize B.wav B;
#X msg 371 152 read -resize C.wav C;
#X msg 572 162 read -resize D.wav D;
#X msg 668 317 read -resize F.wav F;
#X msg 663 368 read -resize G.wav G;
#X msg 618 240 read -resize E.wav E;
#X msg 66 314 read -resize A.wav A;
#X connect 1 0 9 0;
#X connect 1 0 3 0;
#X connect 1 0 5 0;
#X connect 1 0 4 0;
#X connect 1 0 2 0;
#X connect 1 0 8 0;
#X connect 1 0 6 0;
#X connect 1 0 7 0;
#X connect 2 0 0 0;
#X connect 3 0 0 0;
#X connect 4 0 0 0;
#X connect 5 0 0 0;
#X connect 6 0 0 0;
#X connect 7 0 0 0;
#X connect 8 0 0 0;
#X connect 9 0 0 0;
#X restore 574 557 pd loadtables;
#X msg 243 322 switch B;
#X msg 331 327 switch C;
#X msg 427 319 switch D;
#X msg 512 320 switch E;
#X msg 593 315 switch F;
#X msg 682 317 switch G;
#X obj 164 252 r A;
#X obj 243 252 r B;
#X obj 351 254 r C;
#X obj 435 254 r D;
#X obj 515 260 r E;
#X obj 590 263 r F;
#X obj 670 267 r G;
#N canvas 153 148 408 639 distance 0;
#X obj 81 53 r source_xpos;
#X obj 199 52 r source_ypos;
#X obj 66 103 - 0;
#X obj 66 16 r xpos;
#X obj 184 20 r ypos;
#X obj 72 161 pow 2;
#X obj 176 167 pow 2;
#X obj 106 192 +;
#X obj 105 223 pow 0.5;
#X floatatom 194 519 5 0 0 0 - - -, f 5;
#X obj 194 463 / 1;
#X floatatom 251 440 5 0 0 0 - - -, f 5;
#X obj 171 410 t b f;
#X msg 163 438 1;
#X obj 198 545 rmstodb;
#X floatatom 187 590 5 0 0 0 - - -, f 5;
#X floatatom 66 282 5 0 0 0 - - -, f 5;
#X floatatom 234 148 5 0 0 0 - - -, f 5;
#X floatatom 21 150 5 0 0 0 - - -, f 5;
#X floatatom 44 218 5 0 0 0 - - -, f 5;
#X obj 71 130 abs;
#X obj 175 130 abs;
#X obj 81 523 outlet;
#X obj -7 23 loadbang;
#X msg 12 56 0;
#X obj 171 388 max 0.5;
#X floatatom 78 378 5 0 0 0 - - -, f 5;
#X obj 135 311 * 1;
#X text 171 308 scaling factor;
#X obj 184 88 - 0;
#X connect 0 0 2 1;
#X connect 1 0 29 1;
#X connect 2 0 18 0;
#X connect 2 0 20 0;
#X connect 3 0 2 0;
#X connect 4 0 29 0;
#X connect 5 0 7 0;
#X connect 5 0 19 0;
#X connect 6 0 7 1;
#X connect 7 0 8 0;
#X connect 8 0 16 0;
#X connect 8 0 27 0;
#X connect 9 0 14 0;
#X connect 10 0 9 0;
#X connect 10 0 22 0;
#X connect 12 0 13 0;
#X connect 12 1 10 1;
#X connect 12 1 11 0;
#X connect 13 0 10 0;
#X connect 14 0 15 0;
#X connect 20 0 5 0;
#X connect 21 0 6 0;
#X connect 23 0 24 0;
#X connect 24 0 2 0;
#X connect 24 0 29 0;
#X connect 25 0 12 0;
#X connect 27 0 25 0;
#X connect 27 0 26 0;
#X connect 29 0 17 0;
#X connect 29 0 21 0;
#X restore 300 457 pd distance;
#X obj 612 -64 inlet;
#X obj 612 -22 tgl 50 0 empty empty empty 17 7 0 10 -262144 -1 -1 0
1;
#X obj 62 228 *~ 1;
#X obj 2 367 *~ 0;
#X obj 612 63 != 1;
#X floatatom 330 572 5 0 0 0 - - -, f 5;
#N canvas 0 0 586 132 tables 0;
#X obj 43 54 table A;
#X obj 123 57 table B;
#X obj 199 58 table C;
#X obj 276 58 table D;
#X obj 358 60 table E;
#X obj 423 56 table F;
#X obj 485 56 table G;
#X restore 479 556 pd tables;
#N canvas 427 316 635 278 convolution 0;
#X obj 9 7 inlet~;
#X obj 9 75 outlet~;
#X obj 5 145 block~ 2048;
#X obj 78 10 inlet;
#X obj 9 41 openair~ A 2048;
#X text 116 31 this is the openair~ Pd external. It requires 2 arguments
\, the first is the name of the table containing the impulse response
\, and the second is the block size used for the FFT. This must be
the same as the block size of the patch \, or sub-patch in this case.
;
#X text 94 139 this is the blocksize for this sub-patch. This is also
the block size used in the partitioned convolution algorithm in the
openair~ object. This MUST be the same as the second argument given
to the openair~ object.;
#X connect 0 0 4 0;
#X connect 3 0 4 0;
#X connect 4 0 1 0;
#X restore 60 402 pd convolution;
#X obj 59 504 *~ 0.5;
#X text 672 -9 switch on to bypass the convolution effect;
#X text 407 -25 loop sound on/off;
#X text 387 450 subpatch to calculate the sound attenuation according
to virtual distance from the source;
#X obj 61 316 *~ 2;
#X connect 2 0 7 0;
#X connect 4 0 28 0;
#X connect 4 0 29 0;
#X connect 4 1 3 0;
#X connect 4 1 5 0;
#X connect 5 0 2 0;
#X connect 6 0 5 1;
#X connect 6 0 8 0;
#X connect 7 0 4 0;
#X connect 8 0 2 0;
#X connect 9 0 6 0;
#X connect 10 0 33 1;
#X connect 12 0 33 1;
#X connect 13 0 33 1;
#X connect 14 0 33 1;
#X connect 15 0 33 1;
#X connect 16 0 33 1;
#X connect 17 0 33 1;
#X connect 18 0 10 0;
#X connect 19 0 12 0;
#X connect 20 0 13 0;
#X connect 21 0 14 0;
#X connect 22 0 15 0;
#X connect 23 0 16 0;
#X connect 24 0 17 0;
#X connect 25 0 31 0;
#X connect 25 0 38 1;
#X connect 26 0 27 0;
#X connect 27 0 30 0;
#X connect 27 0 29 1;
#X connect 28 0 38 0;
#X connect 29 0 34 0;
#X connect 30 0 28 1;
#X connect 33 0 34 0;
#X connect 34 0 0 0;
#X connect 34 0 0 1;
#X connect 38 0 33 0;
#X restore 32 267 pd sound;
#X obj 32 118 tgl 50 0 empty empty empty 17 7 0 10 -262144 -1 -1 0
1;
#X obj 77 198 tgl 50 0 empty empty empty 17 7 0 10 -262144 -1 -1 0
1;
#N canvas 560 973 711 335 drawcircles 0;
#X obj -10 63 gemhead;
#X obj 75 94 r xpos;
#X obj 141 95 r ypos;
#X obj 418 71 gemhead;
#X obj 419 197 circle 0.1;
#X msg 504 109 0;
#X obj 505 76 loadbang;
#X obj 583 146 s source_ypos;
#X obj 554 171 s source_xpos;
#X obj 13 227 circle 0.2;
#X msg 57 191 draw fill;
#X obj -10 92 color 0 0 0;
#X obj 208 59 gemhead;
#X obj 304 61 r xpos;
#X obj 359 91 r ypos;
#X msg 275 187 draw fill;
#X obj 231 223 circle 0.14;
#X obj 418 100 color 0 0 0;
#X msg 566 109 0;
#X obj 208 88 color 0.8 0.8 0.8;
#X obj 28 151 translateXYZ 0 0 1e-05;
#X obj 246 147 translateXYZ 0 0 2e-05;
#X obj 423 152 translateXYZ 0 0 1e-05;
#X connect 0 0 11 0;
#X connect 1 0 20 1;
#X connect 2 0 20 2;
#X connect 3 0 17 0;
#X connect 5 0 8 0;
#X connect 5 0 22 1;
#X connect 6 0 18 0;
#X connect 6 0 5 0;
#X connect 10 0 9 0;
#X connect 11 0 20 0;
#X connect 12 0 19 0;
#X connect 13 0 21 1;
#X connect 14 0 21 2;
#X connect 15 0 16 0;
#X connect 17 0 22 0;
#X connect 18 0 7 0;
#X connect 18 0 22 2;
#X connect 19 0 21 0;
#X connect 20 0 9 0;
#X connect 21 0 16 0;
#X connect 22 0 4 0;
#X restore 65 444 pd drawcircles;
#X text 134 206 Anechoic On/Off Click to toggle the convolution reverberation
effect off or on. Off by default;
#X text 153 398 Subpatch to control which impulse responses are loaded
\, depending on mouse input from the GUI;
#X text 167 441 Subpatch to draw virtual sound source and listener
positions in the GUI;
#X text 160 313 Subpatch to draw the church shape in the GUI;
#X text 166 362 Subpatch to deal with user input from the mouse;
#X text 91 127 LOOP Click to begin playing and looping a pre-recorded
sound.;
#X text 548 61 openair~ demo! This is a demonstration patch \, to show
how the openair~ Pd external might be used in a virtual reality application.
The user can move around in a virtual listening space using the computer
mouse. The impulse response data that is loaded into the convoluion
reverb effect is changed depending on the user's position within the
space. Different acoustic characteristics can be heard \, depending
on what zone you are in within the virtual space. To begin \, click
LOOP. You should hear a sound. Now open the GUI by clicking "rendering"
;
#X text 130 70 Click "rendering" to open up the graphical user interface
(GUI). You must click it again to close the GUI.;
#X connect 1 0 2 0;
#X connect 6 0 5 0;
#X connect 7 0 5 1;
